<svg xmlns="http://www.w3.org/2000/svg" width="691px" height="638px" viewBox="0 0 691 638" fill="none" aria-hidden="true"><defs><linearGradient class="cerosgradient" data-cerosgradient="true" id="CerosGradient_id204a4c5e0" gradientUnits="userSpaceOnUse" x1="50%" y1="100%" x2="50%" y2="0%"><stop offset="0%" stop-color="#d1d1d1"/><stop offset="100%" stop-color="#d1d1d1"/></linearGradient><linearGradient/></defs>
<path d="M661.248 416.833L655.153 398.229C652.679 390.974 644.792 387.095 637.551 389.573L618.981 395.679C611.739 398.157 607.867 406.059 610.341 413.314L616.435 431.918C618.909 439.173 626.796 443.051 634.037 440.573L652.608 434.468C659.849 431.989 663.721 424.088 661.248 416.833Z" fill="#F38DA2" fill-opacity="0.15"/>
<path d="M568.074 354.089L547.676 361.272C539.072 364.397 534.591 373.95 537.745 382.57L544.915 403.006C548.034 411.626 557.57 416.115 566.174 412.954L586.573 405.771C595.177 402.647 599.658 393.093 596.503 384.474L589.333 364.038C586.214 355.418 576.678 350.929 568.074 354.089Z" fill="#F38DA2" fill-opacity="0.15"/>
<path d="M676.435 493.314L661.522 497.222C657.02 498.402 654.326 503.014 655.503 507.523L659.405 522.464C660.582 526.974 665.186 529.673 669.687 528.494L684.601 524.585C689.102 523.405 691.797 518.793 690.619 514.284L686.718 499.343C685.54 494.833 680.937 492.134 676.435 493.314Z" fill="#F38DA2" fill-opacity="0.15"/>
<path d="M621.741 467.833C619.912 461.943 613.674 458.639 607.795 460.471L591.053 465.463C585.174 467.294 581.875 473.544 583.704 479.434L588.687 496.206C590.515 502.096 596.753 505.401 602.633 503.533L619.374 498.541C625.254 496.709 628.552 490.46 626.724 484.57L621.741 467.797V467.833Z" fill="#F38DA2" fill-opacity="0.15"/>
<path d="M562.41 453.216L556.315 434.611C553.842 427.357 545.955 423.478 538.713 425.956L520.143 432.061C512.901 434.54 509.029 442.441 511.503 449.696L517.597 468.3C520.071 475.555 527.958 479.434 535.2 476.956L553.77 470.85C561.012 468.372 564.883 460.47 562.41 453.216Z" fill="#F38DA2" fill-opacity="0.15"/>
<path d="M469.236 390.472L448.838 397.655C440.234 400.779 435.753 410.333 438.907 418.952L446.077 439.388C449.196 448.008 458.732 452.497 467.336 449.337L487.735 442.154C496.339 439.029 500.82 429.476 497.665 420.856L490.495 400.42C487.377 391.8 477.84 387.311 469.236 390.472Z" fill="#F38DA2" fill-opacity="0.15"/>
<path d="M562.624 533.715L577.538 529.809C582.047 528.628 586.641 531.323 587.819 535.84L591.718 550.782C592.897 555.299 590.207 559.901 585.698 561.082L570.784 564.988C566.275 566.169 561.681 563.474 560.502 558.957L556.603 544.016C555.425 539.498 558.149 534.887 562.624 533.715Z" fill="#F38DA2" fill-opacity="0.15"/>
<path d="M522.903 504.179C521.074 498.289 514.836 494.985 508.957 496.817L492.215 501.809C486.336 503.641 483.038 509.89 484.866 515.78L489.849 532.552C491.677 538.443 497.915 541.747 503.795 539.915L520.537 534.923C526.416 533.091 529.714 526.842 527.886 520.952L522.903 504.179Z" fill="#F38DA2" fill-opacity="0.15"/>
<path d="M463.572 489.598L457.477 470.994C455.004 463.739 447.117 459.86 439.875 462.338L421.305 468.444C414.063 470.922 410.191 478.823 412.665 486.078L418.759 504.682C421.233 511.937 429.12 515.816 436.362 513.338L454.932 507.232C462.174 504.754 466.045 496.853 463.572 489.598Z" fill="#F38DA2" fill-opacity="0.15"/>
<path d="M370.397 426.854L349.998 434.037C341.394 437.161 336.913 446.715 340.068 455.334L347.238 475.77C350.357 484.39 359.893 488.879 368.497 485.719L388.895 478.536C397.499 475.411 401.98 465.858 398.826 457.238L391.656 436.802C388.537 428.183 379.001 423.693 370.397 426.854Z" fill="#F38DA2" fill-opacity="0.15"/>
<path d="M478.694 566.204L463.78 570.11C459.278 571.289 456.583 575.901 457.76 580.41L461.658 595.352C462.835 599.862 467.438 602.562 471.94 601.383L486.854 597.477C491.356 596.298 494.051 591.686 492.874 587.177L488.976 572.235C487.799 567.725 483.196 565.025 478.694 566.204Z" fill="#F38DA2" fill-opacity="0.15"/>
<path d="M424.065 540.562C422.236 534.672 415.999 531.367 410.119 533.199L393.377 538.191C387.498 540.023 384.2 546.272 386.028 552.162L391.011 568.935C392.839 574.825 399.077 578.129 404.957 576.297L421.699 571.305C427.578 569.474 430.876 563.224 429.048 557.334L424.065 540.562Z" fill="#F38DA2" fill-opacity="0.15"/>
<path d="M364.734 525.98L358.639 507.376C356.166 500.121 348.279 496.242 341.037 498.72L322.467 504.826C315.225 507.304 311.353 515.206 313.827 522.46L319.921 541.065C322.395 548.32 330.282 552.198 337.524 549.72L356.094 543.615C363.336 541.136 367.208 533.235 364.734 525.98Z" fill="#F38DA2" fill-opacity="0.15"/>
<path d="M300.025 493.62L292.855 473.185C289.736 464.565 280.2 460.075 271.596 463.236L251.197 470.419C242.593 473.544 238.112 483.097 241.267 491.717L248.437 512.153C251.556 520.772 261.092 525.262 269.696 522.101L290.094 514.918C298.698 511.793 303.18 502.24 300.025 493.62Z" fill="#F38DA2" fill-opacity="0.15"/>
<path d="M228.431 439.065C226.137 433.39 228.933 426.961 234.669 424.807C240.082 422.759 246.571 420.209 252.02 417.911C257.9 415.469 264.568 418.521 266.54 424.555C269.443 433.426 273.136 443.985 273.136 443.985C277.115 454.509 288.838 459.788 299.306 455.802L322.645 447.074C333.149 443.087 338.419 431.343 334.439 420.856C334.439 420.856 330.603 410.907 327.269 402.647C324.975 396.972 327.771 390.543 333.507 388.388C338.921 386.341 345.409 383.791 350.859 381.493C356.738 379.05 363.406 382.103 365.378 388.137C368.282 397.008 371.974 407.567 371.974 407.567C375.954 418.09 387.677 423.37 398.145 419.383L421.483 410.656C431.987 406.669 437.257 394.925 433.278 384.438C433.278 384.438 429.442 374.489 426.108 366.229C423.813 360.554 426.61 354.125 432.346 351.97C437.759 349.923 444.248 347.373 449.697 345.075C455.576 342.632 462.244 345.685 464.216 351.719C467.12 360.59 470.812 371.149 470.812 371.149C474.792 381.672 486.515 386.952 496.983 382.965L520.321 374.238C530.825 370.251 536.095 358.507 532.116 348.02C532.116 348.02 528.28 338.071 524.946 329.811C522.651 324.136 525.448 317.707 531.184 315.552C536.597 313.505 543.086 310.955 548.535 308.656C554.414 306.214 561.083 309.267 563.054 315.301C565.958 324.172 569.651 334.731 569.651 334.731C573.63 345.254 585.353 350.534 595.821 346.547L619.159 337.82C629.663 333.833 634.933 322.089 630.954 311.601L622.243 288.221C618.263 277.697 606.54 272.418 596.072 276.404L572.734 285.132C570.224 286.102 568.002 287.502 566.137 289.226C566.353 286.066 565.922 282.797 564.703 279.601L555.311 255.502C550.865 244.117 538.067 238.514 526.738 242.931C526.738 242.931 499.958 253.562 498.704 254.352C498.56 252.09 487.841 223.465 487.841 223.465C486.909 221.059 485.547 218.904 483.969 217.036C486.049 216.929 488.128 216.534 490.171 215.743L513.51 207.016C524.014 203.029 529.284 191.285 525.304 180.798L516.593 157.417C512.614 146.894 500.891 141.614 490.422 145.601L467.084 154.328C456.58 158.315 451.31 170.059 455.289 180.546C455.289 180.546 459.125 190.495 462.459 198.755C464.754 204.43 461.958 210.859 456.222 213.014C450.808 215.061 444.319 217.611 438.87 219.91C432.991 222.352 426.323 219.299 424.351 213.265C421.447 204.394 417.755 193.835 417.755 193.835C413.775 183.312 402.052 178.032 391.584 182.019L368.246 190.746C357.742 194.733 352.472 206.477 356.451 216.965C356.451 216.965 360.287 226.913 363.621 235.174C365.916 240.848 363.119 247.277 357.383 249.432C351.97 251.479 345.481 254.029 340.032 256.328C334.153 258.77 327.484 255.717 325.513 249.683C322.609 240.812 318.916 230.253 318.916 230.253C314.937 219.73 303.214 214.45 292.746 218.437L269.408 227.164C258.904 231.151 253.634 242.895 257.613 253.383C257.613 253.383 261.449 263.331 264.783 271.592C267.077 277.266 264.281 283.695 258.545 285.85C253.132 287.897 246.643 290.447 241.194 292.746C235.314 295.188 228.646 292.135 226.674 286.102C223.771 277.23 220.078 266.671 220.078 266.671C216.099 256.148 204.376 250.869 193.908 254.855L170.569 263.583C160.065 267.569 154.795 279.314 158.775 289.801C158.775 289.801 162.611 299.749 165.945 308.01C168.239 313.685 165.443 320.113 159.707 322.268C154.293 324.315 147.805 326.865 142.355 329.164C136.476 331.606 129.808 328.553 127.836 322.52C124.932 313.649 121.24 303.089 121.24 303.089C117.261 292.566 105.538 287.287 95.0694 291.273L71.7311 300.001C61.2271 303.987 55.9571 315.732 59.9365 326.219L68.648 349.6C72.6273 360.123 84.3503 365.403 94.8184 361.416L118.157 352.689C120.666 351.719 122.889 350.318 124.753 348.594C124.538 351.755 124.968 355.023 126.187 358.22L135.58 382.319C140.025 393.704 152.824 399.307 164.152 394.889L188.208 385.479C189.642 384.941 190.968 384.222 192.187 383.432C192.33 385.695 192.796 387.993 193.657 390.256L203.049 414.355C203.981 416.762 205.344 418.916 206.921 420.784C204.842 420.892 202.763 421.287 200.719 422.077L177.381 430.804C166.877 434.791 161.607 446.535 165.586 457.023L174.298 480.403C178.277 490.927 190 496.206 200.468 492.22L223.806 483.492C234.311 479.506 239.58 467.761 235.601 457.274C235.601 457.274 231.765 447.325 228.431 439.065ZM478.556 278.416C483.969 276.333 489.992 279.098 492 284.521C494.151 290.34 496.911 297.343 498.991 302.156C501.177 307.22 498.668 313.074 493.505 314.977C488.451 316.845 482.32 319.215 477.266 321.263C472.103 323.346 466.26 320.616 464.539 315.301C462.854 310.093 460.308 303.018 458.122 297.307C456.042 291.884 458.803 285.778 464.288 283.803C468.805 282.151 474.075 280.176 478.592 278.452L478.556 278.416ZM395.133 250.258C400.188 248.39 406.318 246.02 411.373 243.973C416.536 241.89 422.379 244.619 424.1 249.935C425.785 255.143 428.33 262.182 430.517 267.928C432.596 273.352 429.836 279.457 424.351 281.433C419.834 283.085 414.564 285.06 410.047 286.784C404.634 288.867 398.611 286.102 396.603 280.678C394.452 274.86 391.692 267.857 389.612 263.044C387.426 257.98 389.935 252.126 395.097 250.222L395.133 250.258ZM379.718 314.798C385.131 312.715 391.154 315.48 393.162 320.904C395.313 326.722 398.073 333.725 400.152 338.538C402.339 343.602 399.83 349.456 394.667 351.36C389.612 353.227 383.482 355.598 378.427 357.645C373.265 359.728 367.421 356.998 365.701 351.683C364.016 346.475 361.47 339.4 359.248 333.689C357.168 328.266 359.929 322.161 365.414 320.185C369.931 318.533 375.201 316.558 379.718 314.834V314.798ZM296.295 286.64C301.35 284.773 307.48 282.402 312.535 280.355C317.697 278.272 323.541 281.002 325.262 286.317C326.947 291.525 329.492 298.6 331.715 304.311C333.794 309.734 331.034 315.839 325.549 317.815C321.031 319.467 315.762 321.442 311.244 323.166C305.831 325.249 299.808 322.484 297.801 317.061C295.65 311.242 292.889 304.239 290.81 299.426C288.623 294.362 291.133 288.508 296.295 286.604V286.64ZM280.88 351.18C286.293 349.097 292.316 351.863 294.323 357.286C296.474 363.104 299.235 370.107 301.314 374.92C303.501 379.984 300.991 385.838 295.829 387.742C290.774 389.61 284.644 391.98 279.589 394.027C274.427 396.11 268.583 393.381 266.862 388.065C265.177 382.857 262.632 375.818 260.445 370.072C258.366 364.648 261.126 358.543 266.611 356.567C271.128 354.915 276.398 352.94 280.915 351.216L280.88 351.18ZM212.406 359.584C206.993 361.667 200.97 358.902 198.962 353.479C196.811 347.66 194.051 340.657 191.972 335.844C189.785 330.78 192.294 324.926 197.457 323.023C202.512 321.155 208.642 318.785 213.697 316.737C218.859 314.654 224.703 317.384 226.424 322.699C228.108 327.907 230.654 334.982 232.841 340.693C234.92 346.116 232.16 352.222 226.674 354.197C222.157 355.849 216.887 357.824 212.37 359.548L212.406 359.584Z" fill="#F38DA2" fill-opacity="0.15"/>
<path d="M379.848 602.563L364.934 606.469C360.432 607.648 357.737 612.259 358.914 616.769L362.813 631.711C363.989 636.22 368.593 638.921 373.094 637.742L388.009 633.836C392.51 632.657 395.205 628.045 394.029 623.536L390.13 608.594C388.953 604.084 384.35 601.384 379.848 602.563Z" fill="#F38DA2" fill-opacity="0.15"/>
<path d="M325.227 576.944C323.399 571.054 317.161 567.75 311.281 569.581L294.539 574.574C288.66 576.405 285.362 582.655 287.19 588.545L292.173 605.317C294.002 611.207 300.239 614.511 306.119 612.644L322.861 607.652C328.74 605.82 332.038 599.571 330.21 593.681L325.227 576.908V576.944Z" fill="#F38DA2" fill-opacity="0.15"/>
<path d="M80.6577 224.65L74.5632 206.046C72.0896 198.791 64.2026 194.912 56.9609 197.391L38.3907 203.496C31.149 205.974 27.2772 213.876 29.7508 221.131L35.8453 239.735C38.319 246.99 46.2059 250.869 53.4476 248.39L72.0179 242.285C79.2596 239.807 83.1314 231.905 80.6577 224.65Z" fill="#F38DA2" fill-opacity="0.15"/>
<path d="M124.789 225.01L104.391 232.193C95.7866 235.317 91.3054 244.871 94.4602 253.49L101.63 273.926C104.749 282.546 114.285 287.035 122.889 283.875L143.288 276.692C151.892 273.567 156.373 264.014 153.218 255.394L146.048 234.958C142.929 226.338 133.393 221.849 124.789 225.01Z" fill="#F38DA2" fill-opacity="0.15"/>
<path d="M21.2848 109.41L6.37117 113.319C1.86979 114.498 -0.824701 119.111 0.352855 123.62L4.25424 138.561C5.4318 143.071 10.0355 145.77 14.5369 144.59L29.4505 140.682C33.9518 139.502 36.6463 134.89 35.4688 130.38L31.5674 115.44C30.3898 110.93 25.7862 108.231 21.2848 109.41Z" fill="#F38DA2" fill-opacity="0.15"/>
<path d="M69.2572 170.167C71.0856 176.057 77.3234 179.361 83.2028 177.529L99.9447 172.537C105.824 170.706 109.122 164.456 107.294 158.566L102.311 141.794C100.482 135.904 94.2446 132.599 88.3652 134.467L71.6233 139.459C65.7439 141.291 62.4457 147.54 64.2741 153.43L69.2572 170.203V170.167Z" fill="#F38DA2" fill-opacity="0.15"/>
<path d="M128.589 184.749L134.683 203.353C137.157 210.608 145.044 214.486 152.286 212.008L170.856 205.903C178.097 203.425 181.969 195.523 179.496 188.268L173.401 169.664C170.927 162.409 163.041 158.53 155.799 161.009L137.229 167.114C129.987 169.592 126.115 177.494 128.589 184.749Z" fill="#F38DA2" fill-opacity="0.15"/>
<path d="M223.627 188.627L203.228 195.81C194.625 198.935 190.143 208.488 193.298 217.108L200.468 237.544C203.587 246.164 213.123 250.653 221.727 247.493L242.126 240.309C250.73 237.185 255.211 227.631 252.056 219.012L244.886 198.576C241.767 189.956 232.231 185.467 223.627 188.627Z" fill="#F38DA2" fill-opacity="0.15"/>
<path d="M120.112 73.0606L105.198 76.9665C100.696 78.1454 98.0008 82.757 99.1776 87.2668L103.076 102.208C104.253 106.718 108.856 109.418 113.358 108.239L128.272 104.333C132.774 103.155 135.469 98.5429 134.292 94.0331L130.394 79.0916C129.217 74.5819 124.614 71.8816 120.112 73.0606Z" fill="#F38DA2" fill-opacity="0.15"/>
<path d="M168.097 133.785C169.925 139.675 176.163 142.979 182.043 141.147L198.785 136.155C204.664 134.323 207.962 128.074 206.134 122.184L201.151 105.412C199.322 99.5214 193.084 96.2172 187.205 98.0489L170.463 103.041C164.584 104.873 161.286 111.122 163.114 117.012L168.097 133.785Z" fill="#F38DA2" fill-opacity="0.15"/>
<path d="M227.429 148.402L233.523 167.006C235.997 174.261 243.884 178.14 251.125 175.662L269.696 169.556C276.937 167.078 280.809 159.177 278.335 151.922L272.241 133.318C269.767 126.063 261.88 122.184 254.639 124.662L236.068 130.768C228.827 133.246 224.955 141.147 227.429 148.402Z" fill="#F38DA2" fill-opacity="0.15"/>
<path d="M322.467 152.245L302.068 159.428C293.464 162.553 288.983 172.106 292.138 180.726L299.308 201.162C302.427 209.781 311.963 214.271 320.567 211.11L340.966 203.927C349.569 200.803 354.051 191.249 350.896 182.629L343.726 162.194C340.607 153.574 331.071 149.084 322.467 152.245Z" fill="#F38DA2" fill-opacity="0.15"/>
<path d="M204.077 40.5626L218.991 36.6567C223.5 35.4759 228.103 38.2054 229.272 42.6878L233.171 57.6293C234.35 62.1465 231.625 66.7579 227.151 67.9297L212.237 71.8356C207.728 73.0164 203.134 70.3217 201.955 65.8045L198.057 50.863C196.878 46.3458 199.602 41.7344 204.077 40.5626Z" fill="#F38DA2" fill-opacity="0.15"/>
<path d="M266.935 97.4382C268.763 103.328 275.001 106.633 280.881 104.801L297.622 99.8087C303.502 97.977 306.8 91.7277 304.972 85.8376L299.989 69.0651C298.16 63.175 291.922 59.8708 286.043 61.7025L269.301 66.6947C263.422 68.5264 260.123 74.7757 261.952 80.6658L266.935 97.4382Z" fill="#F38DA2" fill-opacity="0.15"/>
<path d="M326.266 112.02L332.361 130.624C334.835 137.879 342.722 141.758 349.963 139.28L368.534 133.174C375.775 130.696 379.647 122.794 377.173 115.54L371.079 96.9354C368.605 89.6805 360.718 85.8016 353.477 88.2798L334.906 94.3854C327.665 96.8636 323.793 104.765 326.266 112.02Z" fill="#F38DA2" fill-opacity="0.15"/>
<path d="M390.976 144.38L398.146 164.815C401.265 173.435 410.801 177.925 419.405 174.764L439.803 167.581C448.407 164.456 452.889 154.903 449.734 146.283L442.564 125.847C439.445 117.228 429.909 112.738 421.305 115.899L400.906 123.082C392.302 126.206 387.821 135.76 390.976 144.38Z" fill="#F38DA2" fill-opacity="0.15"/>
<path d="M302.92 4.20376L317.835 0.297869C322.344 -0.882984 326.938 1.81175 328.116 6.32895L332.015 21.2705C333.194 25.7877 330.504 30.3899 325.995 31.5708L311.081 35.4767C306.572 36.6575 301.978 33.9628 300.799 29.4456L296.909 14.5388C295.731 10.0216 298.455 5.41028 302.929 4.23851L302.92 4.20376Z" fill="#F38DA2" fill-opacity="0.15"/>
<path d="M365.773 61.056C367.601 66.9461 373.839 70.2503 379.718 68.4186L396.46 63.4264C402.34 61.5947 405.638 55.3455 403.81 49.4553L398.826 32.6829C396.998 26.7928 390.76 23.4886 384.881 25.3561L368.139 30.3484C362.26 32.1801 358.961 38.4293 360.79 44.3194L365.773 61.0919V61.056Z" fill="#F38DA2" fill-opacity="0.15"/>
</svg>